<svg width="1024" height="512" viewBox="0 0 1024 512" xmlns="http://www.w3.org/2000/svg">
  <defs>
    <linearGradient id="bg" x1="0%" y1="0%" x2="100%" y2="100%">
      <stop offset="0%" stop-color="#4e54c8"/>
      <stop offset="100%" stop-color="#8f94fb"/>
    </linearGradient>
  </defs>
  <rect width="1024" height="512" fill="url(#bg)"/>
  <!-- human icon -->
  <g transform="translate(300,256)">
    <circle cx="0" cy="-50" r="40" fill="#ffffff" opacity="0.9"/>
    <rect x="-20" y="-10" width="40" height="100" fill="#ffffff" opacity="0.9"/>
    <rect x="-60" y="20" width="40" height="20" fill="#ffffff" opacity="0.9"/>
    <rect x="20" y="20" width="40" height="20" fill="#ffffff" opacity="0.9"/>
  </g>
  <!-- robot icon -->
  <g transform="translate(724,256)">
    <rect x="-40" y="-90" width="80" height="120" fill="#ffffff" opacity="0.9" rx="10"/>
    <circle cx="0" cy="-50" r="30" fill="#4e54c8"/>
    <rect x="-50" y="-10" width="20" height="80" fill="#ffffff" opacity="0.9"/>
    <rect x="30" y="-10" width="20" height="80" fill="#ffffff" opacity="0.9"/>
    <circle cx="-15" cy="-55" r="5" fill="#4e54c8"/>
    <circle cx="15" cy="-55" r="5" fill="#4e54c8"/>
  </g>
  <!-- supercharging bolt -->
  <path d="M512,150 L492,260 L532,260 L512,362 L432,212 L472,212 Z" fill="#ffffff" opacity="0.8"/>
</svg> 